
<svg version="1.0" xmlns="http://www.w3.org/2000/svg"
 width="563.000000pt" height="598.000000pt" viewBox="0 0 563.000000 598.000000"
 preserveAspectRatio="xMidYMid meet">

<g transform="translate(0.000000,598.000000) scale(0.100000,-0.100000)"
fill="#000000" stroke="none">
<path d="M2865 4661 c-16 -10 -41 -30 -54 -44 l-24 -26 -71 37 c-65 33 -78 36
-156 37 -101 0 -155 -22 -222 -90 -34 -34 -55 -45 -98 -54 -30 -7 -74 -21 -97
-32 -56 -27 -121 -102 -135 -155 l-11 -42 -64 -5 c-164 -13 -309 -161 -321
-329 -5 -67 -5 -68 -48 -93 -53 -31 -96 -92 -118 -165 -20 -66 -20 -103 -2
-165 l15 -48 -35 -41 c-137 -160 -131 -365 17 -521 46 -49 48 -53 39 -86 -21
-73 -6 -146 47 -221 30 -45 126 -113 173 -123 22 -5 30 -12 30 -28 0 -46 23
-100 57 -138 42 -46 73 -64 126 -74 30 -6 41 -14 51 -39 19 -45 81 -101 127
-115 37 -11 39 -14 39 -51 0 -51 18 -137 37 -175 9 -16 33 -51 54 -76 l38 -46
-19 -52 c-11 -28 -20 -61 -20 -74 0 -40 20 -96 44 -124 23 -27 23 -29 7 -53
-24 -34 -51 -105 -51 -133 0 -39 20 -96 43 -123 l23 -26 -33 -65 c-18 -36 -33
-77 -33 -92 0 -48 21 -103 53 -138 28 -30 43 -36 119 -50 83 -16 87 -18 92
-47 10 -49 52 -93 123 -128 63 -31 73 -33 199 -36 115 -4 143 -1 204 17 84 26
155 83 166 134 10 48 19 54 89 62 114 12 168 72 169 190 1 49 -4 69 -27 108
l-28 47 20 26 c25 32 44 122 35 169 -3 19 -17 51 -30 71 -29 42 -29 40 -5 71
29 36 45 126 32 176 -9 36 -6 52 25 142 69 198 147 309 384 545 186 186 246
268 311 426 149 365 134 742 -46 1122 -193 408 -533 672 -964 747 -121 21
-238 20 -276 -4z m259 -77 c448 -71 798 -372 958 -824 53 -151 79 -275 85
-407 9 -209 -8 -266 -124 -419 -110 -146 -179 -201 -432 -348 l-133 -77 -47
19 c-53 23 -144 47 -215 57 l-48 7 7 46 c17 122 114 352 185 442 l29 37 49
-47 c151 -146 320 -131 364 33 21 81 -20 165 -106 210 -31 16 -59 21 -117 22
-66 0 -80 -3 -118 -28 -24 -16 -47 -25 -52 -20 -4 4 -11 26 -14 48 l-7 40 62
18 c78 23 164 102 176 161 11 59 -2 108 -36 139 -27 24 -38 27 -98 27 -50 0
-76 -5 -101 -21 -61 -37 -80 -74 -97 -187 -5 -33 -9 -42 -22 -38 -10 2 -32 7
-49 11 l-33 7 22 41 c48 91 19 220 -62 275 -29 20 -44 23 -88 20 -87 -7 -132
-65 -132 -168 0 -73 19 -123 66 -171 l34 -35 -22 -20 c-13 -12 -51 -42 -84
-67 l-61 -46 -8 598 c-7 540 -6 601 9 629 9 17 24 36 33 41 26 15 112 13 227
-5z m-436 -44 c84 -39 90 -54 35 -100 -81 -66 -254 -124 -315 -104 -29 9 -59
81 -47 112 18 47 50 80 102 107 68 34 126 31 225 -15z m-426 -144 l4 -34 -44
22 -44 21 29 12 c43 19 50 16 55 -21z m-247 -250 c50 -21 43 -28 -19 -21 -110
14 -188 -50 -194 -160 -4 -73 17 -119 68 -153 31 -21 45 -23 118 -20 68 2 80
1 65 -10 -45 -33 -133 -41 -191 -17 -125 53 -161 207 -74 324 47 63 150 89
227 57z m-403 -461 c-6 -89 3 -127 43 -180 31 -40 33 -45 15 -45 -11 0 -36 15
-56 33 -61 56 -74 162 -28 233 9 13 19 24 23 24 4 0 5 -29 3 -65z m1511 23
c25 -33 26 -92 2 -141 -20 -43 -33 -46 -63 -14 -39 42 -53 108 -32 162 8 22
15 26 42 23 20 -2 38 -13 51 -30z m405 -77 c22 -2 13 -58 -15 -92 -25 -29 -92
-68 -119 -69 -13 0 -2 97 15 128 11 21 62 41 91 36 8 -1 21 -3 28 -3z m-308
-239 l75 -18 6 -39 c4 -22 14 -59 22 -83 l15 -43 -54 -72 c-105 -140 -160
-272 -218 -528 -4 -20 -13 -28 -36 -31 l-30 -5 0 221 c0 200 2 223 20 262 23
47 17 81 -22 108 -34 24 -66 19 -99 -13 -33 -33 -37 -65 -12 -101 16 -22 17
-50 14 -260 -3 -227 -6 -249 -33 -250 -5 0 -8 151 -8 334 l0 335 53 35 c28 19
88 64 131 100 43 36 84 66 90 66 6 -1 45 -9 86 -18z m-1726 -87 c-21 -67 -14
-183 15 -250 l21 -50 -33 37 c-55 61 -72 158 -43 241 13 35 45 81 52 74 2 -2
-4 -25 -12 -52z m2156 -77 c25 -13 52 -35 60 -51 14 -25 13 -30 -5 -65 -17
-31 -26 -37 -57 -40 -46 -4 -101 23 -151 75 l-37 39 22 21 c50 47 103 53 168
21z m-1976 -565 c34 -32 40 -43 26 -43 -24 0 -77 44 -95 81 -8 15 -15 47 -15
71 l1 43 19 -55 c13 -38 33 -68 64 -97z m837 -954 c102 -19 138 -20 339 -15
124 3 240 8 258 12 27 5 32 3 32 -14 0 -24 -34 -29 -286 -38 -145 -6 -204 -4
-301 10 -111 16 -123 16 -159 1 -21 -9 -49 -26 -61 -37 l-23 -21 0 29 c0 42
35 94 63 94 13 0 75 -9 138 -21z m-66 -299 c22 -5 104 -16 183 -25 120 -14
168 -15 295 -5 84 6 167 13 185 16 27 5 32 3 32 -14 0 -16 -9 -21 -52 -26
-124 -14 -418 -19 -509 -7 -106 13 -165 2 -233 -44 l-36 -24 0 37 c0 20 9 52
20 70 22 35 42 39 115 22z m30 -315 c224 -42 367 -43 670 -5 132 16 162 17
173 6 11 -10 -4 -16 -85 -29 -229 -38 -474 -45 -734 -21 -72 7 -110 -6 -161
-54 l-28 -26 0 40 c0 51 32 104 62 104 13 0 59 -7 103 -15z"/>
</g>
</svg>
